<svg xmlns="http://www.w3.org/2000/svg" viewBox="0 0 800 500" role="img" aria-label="Sam running">
  <rect width="800" height="500" fill="#fef9c3"/>
  <ellipse cx="400" cy="430" rx="320" ry="36" fill="#fde047" opacity="0.35"/>
  <g transform="translate(380 255) rotate(-8)">
    <circle cx="0" cy="-85" r="48" fill="#fdba74"/>
    <circle cx="-14" cy="-90" r="5" fill="#1e293b"/>
    <circle cx="14" cy="-90" r="5" fill="#1e293b"/>
    <path d="M-10 -72 L10 -72" stroke="#1e293b" stroke-width="3" stroke-linecap="round"/>
    <rect x="-34" y="-32" width="68" height="88" rx="14" fill="#2563eb"/>
    <rect x="-8" y="-50" width="18" height="42" rx="8" fill="#fdba74" transform="rotate(-40 -8 -50)"/>
    <rect x="20" y="-35" width="18" height="48" rx="8" fill="#fdba74" transform="rotate(35 20 -35)"/>
    <path d="M-28 56 L-48 120 L-20 128 L-5 70" fill="#1e40af"/>
    <path d="M18 58 L55 108 L35 118 L8 68" fill="#1e40af"/>
  </g>
  <text x="400" y="470" text-anchor="middle" font-size="22" font-family="system-ui,sans-serif" fill="#854d0e" font-weight="700">Go, Sam!</text>
</svg>
