<svg xmlns="http://www.w3.org/2000/svg" viewBox="0 0 800 500" role="img" aria-label="Girl waving hello">
  <rect width="800" height="500" fill="#fce7f3"/>
  <ellipse cx="400" cy="420" rx="280" ry="40" fill="#fbcfe8" opacity="0.55"/>
  <g transform="translate(400 260)">
    <path d="M-55 -115 Q-55 -145 -25 -155 Q0 -162 25 -155 Q55 -145 55 -115 Q55 -95 40 -85 L35 -75 Q0 -82 -35 -75 L-40 -85 Q-55 -95 -55 -115" fill="#78350f"/>
    <circle cx="0" cy="-90" r="50" fill="#fdba74"/>
    <circle cx="-14" cy="-96" r="5" fill="#1e293b"/>
    <circle cx="14" cy="-96" r="5" fill="#1e293b"/>
    <path d="M-10 -78 Q0 -70 10 -78" fill="none" stroke="#1e293b" stroke-width="3" stroke-linecap="round"/>
    <rect x="-36" y="-36" width="72" height="98" rx="16" fill="#ec4899"/>
    <rect x="-50" y="-22" width="20" height="68" rx="10" fill="#fdba74" transform="rotate(-30 -50 -22)"/>
    <rect x="30" y="-16" width="20" height="68" rx="10" fill="#fdba74" transform="rotate(105 30 -16)"/>
    <rect x="-24" y="62" width="20" height="70" rx="10" fill="#9d174d"/>
    <rect x="4" y="62" width="20" height="70" rx="10" fill="#9d174d"/>
  </g>
  <text x="400" y="440" text-anchor="middle" font-size="26" font-family="system-ui,sans-serif" fill="#9d174d" font-weight="700">Pam</text>
</svg>
